<?xml version="1.0" encoding="utf-8"?>
<!-- Generator: Adobe Illustrator 15.1.0, SVG Export Plug-In . SVG Version: 6.00 Build 0)  -->
<!DOCTYPE svg PUBLIC "-//W3C//DTD SVG 1.1//EN" "http://www.w3.org/Graphics/SVG/1.1/DTD/svg11.dtd">
<svg version="1.1" id="_x32_" xmlns="http://www.w3.org/2000/svg" xmlns:xlink="http://www.w3.org/1999/xlink" x="0px" y="0px"
	 width="512px" height="512px" viewBox="0 0 512 512" style="enable-background:new 0 0 512 512;" xml:space="preserve">
<style type="text/css">
<![CDATA[
	.st0{fill:#4B4B4B;}
]]>
</style>
<g>
	<path class="st0" d="M443.291,100.34c-4.563-23.391-16-45.938-34.078-64.016C397.15,24.293,383.134,15.137,368.149,9.09
		c-22.406-9.094-46.859-11.344-70.297-6.844c-23.406,4.563-45.953,16-64.031,34.078l-94.125,94.156
		c-12.063,12.047-21.172,26.094-27.266,41.016c-9.078,22.453-11.328,46.859-6.781,70.313c4.484,23.406,15.938,45.938,34.047,64.016
		c12.031,12.078,26.078,21.203,41.047,27.234c22.438,9.141,46.844,11.375,70.281,6.844c23.422-4.516,45.969-15.953,64.047-34.078
		l7.063-7.016c0.844-6.469,0-13.234-2.422-19.234c-1.906-4.625-4.672-8.859-8.344-12.469c-5.422-5.469-12.031-8.922-19.516-10.438
		c-3.984-0.75-8.141-0.859-12.219-0.344l-7.031,7.078c-6.313,6.25-13.453,10.906-21.125,14.078
		c-11.531,4.656-24.234,5.859-36.328,3.453c-12.156-2.328-23.563-8.094-32.984-17.531c-6.328-6.313-10.938-13.484-14.078-21.188
		c-4.656-11.469-5.828-24.203-3.516-36.297c2.406-12.109,8.125-23.516,17.594-33.016l94.141-94.125
		c6.281-6.297,13.453-10.953,21.125-14.031c11.5-4.703,24.219-5.875,36.313-3.516c12.141,2.359,23.531,8.141,33,17.547
		c6.313,6.313,10.938,13.5,14.078,21.172c4.642,11.484,5.845,24.203,3.485,36.297c-2.298,11.859-7.876,23-16.923,32.328
		c8.328,5.547,16.141,11.938,23.313,19.094c7.234,7.203,13.594,15.031,19.109,23.375c11.75-11.891,20.688-25.672,26.641-40.391
		C445.525,148.199,447.807,123.793,443.291,100.34z"/>
	<path class="st0" d="M372.259,206.168c-12.031-12.047-26.047-21.188-41.016-27.234c-22.406-9.078-46.875-11.328-70.313-6.797
		c-23.406,4.5-45.938,15.938-64.016,34.031l-7.078,7.063c-0.797,6.484,0,13.188,2.469,19.203c1.859,4.641,4.672,8.875,8.344,12.531
		c5.406,5.375,12,8.906,19.5,10.344c3.953,0.797,8.156,0.891,12.188,0.359l7.047-7.031c6.297-6.328,13.438-10.953,21.141-14.063
		c11.5-4.656,24.203-5.844,36.313-3.547c12.125,2.391,23.516,8.172,33,17.609c6.297,6.297,10.922,13.422,14.031,21.078
		c4.688,11.563,5.844,24.266,3.531,36.359c-2.359,12.156-8.125,23.547-17.563,33.016l-94.156,94.109
		c-6.281,6.344-13.453,10.953-21.141,14.078c-11.516,4.641-24.203,5.828-36.313,3.516c-12.141-2.391-23.531-8.156-33-17.594
		c-6.297-6.266-10.922-13.422-14.031-21.094c-4.688-11.563-5.891-24.25-3.531-36.328c2.344-11.875,7.891-23.016,16.953-32.344
		c-8.359-5.5-16.141-11.906-23.344-19.109l-0.078-0.047c-7.188-7.172-13.516-14.984-19.031-23.297
		c-11.75,11.891-20.688,25.688-26.625,40.359c-9.094,22.438-11.344,46.906-6.813,70.313c4.516,23.469,15.953,45.984,34.063,64.031
		c12.047,12.063,26.063,21.156,41.031,27.266c22.406,9.063,46.859,11.313,70.297,6.781s45.953-15.938,64.031-34.047l94.109-94.125
		c12.095-12.063,21.22-26.109,27.267-41.031c9.094-22.453,11.344-46.906,6.813-70.328C401.838,246.762,390.4,224.23,372.259,206.168
		z"/>
</g>
</svg>
